<?xml version="1.0" encoding="utf-8"?>
<!-- Generator: Adobe Illustrator 27.6.1, SVG Export Plug-In . SVG Version: 6.00 Build 0)  -->
<svg version="1.1" id="Layer_1" xmlns="http://www.w3.org/2000/svg" xmlns:xlink="http://www.w3.org/1999/xlink" x="0px" y="0px"
	 viewBox="0 0 125 32" style="enable-background:new 0 0 125 32;" xml:space="preserve">
<style type="text/css">
	.st0{fill:#F28C62;}
	.st1{fill:#D3B6D8;}
	.st2{fill:#FBBB47;}
</style>
<g>
	<g>
		<path class="st0" d="M0.7,9.9h6l3.6,9.7c0.7,2,1.3,4.1,1.9,6.4h0.4c0.6-2.3,1.2-4.4,1.9-6.4l3.6-9.7H24l-8.1,21.1h-7L0.7,9.9z"/>
		<path class="st0" d="M26.2,9.9H32v21.1h-5.8V9.9z"/>
		<path class="st0" d="M35.2,26L35.2,26c0-4.5,3.8-6.3,9.5-7.3l5.7-1v-1.2c0-2.4-1.4-3.5-4.3-3.5c-3.2,0-4.9,1.5-4.6,4.7l-5.8-0.5
			c-0.3-4.9,3.3-7.7,10.5-7.7c6.8,0,9.9,2.3,9.9,7.1v9.6c0,1.4,0.3,1.7,1.4,1.7l1,0l-0.7,3.5c-0.5,0.1-1.1,0.1-1.6,0.1
			c-4.6,0-5.4-1.7-4.7-5.6l-0.4-0.1c-1.3,3.6-4.7,5.7-9.4,5.7C37.6,31.4,35.2,29.4,35.2,26z M50.4,22v-1l-3.7,0.7
			c-3.7,0.7-5.6,1.6-5.6,3.6v0c0,1.4,1.1,2.1,3,2.1C47.5,27.5,50.4,25.2,50.4,22z"/>
		<path class="st0" d="M57.8,9.9h6l3.6,9.7c0.7,2,1.3,4.1,1.9,6.4h0.4c0.6-2.3,1.2-4.4,1.9-6.4l3.6-9.7H81l-8.1,21.1h-7L57.8,9.9z"
			/>
		<path class="st0" d="M81.6,26L81.6,26c0-4.5,3.8-6.3,9.5-7.3l5.7-1v-1.2c0-2.4-1.4-3.5-4.3-3.5c-3.2,0-4.9,1.5-4.6,4.7l-5.8-0.5
			c-0.3-4.9,3.3-7.7,10.5-7.7c6.8,0,9.9,2.3,9.9,7.1v9.6c0,1.4,0.3,1.7,1.4,1.7l1,0l-0.7,3.5c-0.5,0.1-1.1,0.1-1.6,0.1
			c-4.6,0-5.4-1.7-4.7-5.6l-0.4-0.1c-1.3,3.6-4.7,5.7-9.4,5.7C84,31.4,81.6,29.4,81.6,26z M96.8,22v-1l-3.7,0.7
			c-3.7,0.7-5.6,1.6-5.6,3.6v0c0,1.4,1.1,2.1,3,2.1C93.9,27.5,96.8,25.2,96.8,22z"/>
		<path class="st0" d="M107.5,9.9h5.8v21.1h-5.8V9.9z"/>
	</g>
	<circle class="st1" cx="121.1" cy="27.6" r="3.7"/>
	<path class="st2" d="M110.5,0.6L110.5,0.6c1.8,0,3.3,1.5,3.3,3.3l0,0c0,1.8-1.5,3.3-3.3,3.3l0,0c-1.8,0-3.3-1.5-3.3-3.3l0,0
		C107.2,2,108.6,0.6,110.5,0.6z"/>
</g>
</svg>
